<svg xmlns="http://www.w3.org/2000/svg" viewBox="0 0 71.38 106.59"><defs><style>.cls-1{fill:none;}.cls-1,.cls-2{stroke:#fff;stroke-miterlimit:10;}.cls-2{fill:#1cb0f6;fill-rule:evenodd;}</style></defs><title>d</title><g id="Layer_2" data-name="Layer 2"><g id="Layer_1-2" data-name="Layer 1"><path class="cls-1" d="M56,70.88v.34a20.38,20.38,0,0,1-40.75-.34V70.5A20.38,20.38,0,0,1,56,70.88Z"/><path class="cls-2" d="M70.88,70.88v20.5a14.73,14.73,0,0,1-14.71,14.71h-.09V99.58h0a35.14,35.14,0,0,1-40.75,0A35.21,35.21,0,0,1,4.56,54.48a34.47,34.47,0,0,1,10.73-12.3,35.14,35.14,0,0,1,40.75,0h0v-27A14.7,14.7,0,0,1,70.79.5h.09ZM56,71.22v-.34a20.38,20.38,0,0,0-40.75-.38v.38A20.38,20.38,0,0,0,56,71.22Z"/></g></g></svg>