<svg xmlns="http://www.w3.org/2000/svg" viewBox="0 0 70.89 71.41"><defs><style>.cls-1{fill:#1cb0f6;fill-rule:evenodd;}.cls-1,.cls-2{stroke:#fff;stroke-miterlimit:10;}.cls-2{fill:none;}</style></defs><title>e</title><g id="Layer_2" data-name="Layer 2"><g id="Layer_1-2" data-name="Layer 1"><path class="cls-1" d="M70.27,29.19a11,11,0,0,1-11,12.56H16.21A20.36,20.36,0,0,0,35.7,56.07a21.06,21.06,0,0,0,7.14-1.26A17.85,17.85,0,0,1,62,58.7l.17.12a35.19,35.19,0,1,1,8-29.88A.78.78,0,0,0,70.27,29.19Zm-53.81-.25H54.89a20.37,20.37,0,0,0-38.43,0Z"/><path class="cls-2" d="M54.89,28.94H16.46a20.37,20.37,0,0,1,38.43,0Z"/></g></g></svg>