<svg xmlns="http://www.w3.org/2000/svg" viewBox="0 0 551 141.17"><defs><style>.cls-1{fill:none;stroke:#1cb0f6;stroke-miterlimit:10;}</style></defs><title>Dnezel Logo</title><g id="Layer_2" data-name="Layer 2"><g id="Layer_1-2" data-name="Layer 1"><path id="Dnezel_Logo" data-name="Dnezel Logo" class="cls-1" d="M308.63,102a14.63,14.63,0,0,0,14.56-16.68c0-.12,0-.24-.06-.34a46.73,46.73,0,1,0-10.63,39.72l-.21-.21a23.91,23.91,0,0,0-25.48-5.17A27.06,27.06,0,0,1,251.44,102Zm-56.85-17a27.06,27.06,0,0,1,51,0Zm245,17A14.63,14.63,0,0,0,511.3,85.27c0-.12,0-.24-.06-.34a46.73,46.73,0,1,0-10.63,39.72l-.21-.21a23.9,23.9,0,0,0-25.48-5.17A27.06,27.06,0,0,1,439.55,102Zm-56.86-17a27.06,27.06,0,0,1,51,0ZM367.06,121h21.79a19.67,19.67,0,0,1,19.67,19.67H346.16a8.41,8.41,0,0,1-7-13l40.07-60.75H357.42a19.67,19.67,0,0,1-19.67-19.67h62.36a8.41,8.41,0,0,1,7,13ZM212.11,93.92v46.75h0A19.66,19.66,0,0,1,192.44,121V94.53c0-15.18-12.42-28-27.59-27.67a27.06,27.06,0,0,0-26.53,27.06V121a19.66,19.66,0,0,1-19.66,19.66h0V93.92a46.73,46.73,0,1,1,93.45,0ZM93.81.5A19.53,19.53,0,0,0,74.28,20v35.8h0a46.73,46.73,0,0,0-54.1,0h0A46.65,46.65,0,0,0,.5,93.92v0A46.61,46.61,0,0,0,20.16,132h0a46.69,46.69,0,0,0,54.1,0h0v8.63h.13a19.53,19.53,0,0,0,19.53-19.54V.5ZM74.27,94.4a27.05,27.05,0,0,1-54.1-.46v-.49a27.05,27.05,0,0,1,54.1.47Zm456.56,46.27V4A3.51,3.51,0,0,1,534.34.5H550.5V137.16a3.51,3.51,0,0,1-3.5,3.51Z"/></g></g></svg>